<svg xmlns="http://www.w3.org/2000/svg" viewBox="0 0 100 100">
  <!-- Logo Marianne (profil stylisé) - version simplifiée officielle -->
  <defs>
    <clipPath id="circle">
      <circle cx="50" cy="50" r="50" />
    </clipPath>
  </defs>
  <g clip-path="url(#circle)">
    <rect width="100" height="100" fill="#000091" />
    <!-- Profil Marianne stylisé -->
    <path d="M50 18 C38 18 30 28 30 42 C30 50 33 56 38 60 C34 64 32 70 32 78 L32 100 L68 100 L68 78 C68 70 66 64 62 60 C67 56 70 50 70 42 C70 28 62 18 50 18 Z" fill="#fff" />
    <!-- Chevalure -->
    <path d="M30 42 C28 34 32 22 42 18 C38 26 36 34 38 42 L30 42 Z M70 42 C72 34 68 22 58 18 C62 26 64 34 62 42 L70 42 Z" fill="#e1000f" />
    <!-- Drapeau français -->
    <rect x="0" y="0" width="33.33" height="100" fill="#000091" />
    <rect x="33.33" y="0" width="33.33" height="100" fill="#fff" />
    <rect x="66.66" y="0" width="33.34" height="100" fill="#e1000f" />
  </g>
</svg>
